<svg width="1182" height="65" viewBox="0 0 1182 65" fill="none" xmlns="http://www.w3.org/2000/svg">
<path fill-rule="evenodd" clip-rule="evenodd" d="M1040.08 32.1486C1040.08 15.4983 1053.58 2.00016 1070.23 2.00016C1086.88 2.00016 1100.38 15.4983 1100.38 32.1486C1100.38 48.7979 1086.88 62.296 1070.23 62.296C1053.58 62.296 1040.08 48.7979 1040.08 32.1486ZM1072 21.9078C1072 26.5852 1075.79 30.3775 1080.47 30.3775C1085.15 30.3775 1088.94 26.5852 1088.94 21.9078C1088.94 17.2294 1085.15 13.4381 1080.47 13.4381C1075.79 13.4381 1072 17.2294 1072 21.9078Z" fill="#BBA591"/>
<path d="M1112.87 26.5447C1111.73 26.5447 1110.76 26.3007 1109.94 25.8117C1109.13 25.3237 1108.5 24.6416 1108.06 23.7665C1107.62 22.8925 1107.4 21.8804 1107.4 20.7313C1107.4 19.5832 1107.62 18.5681 1108.06 17.688C1108.5 16.808 1109.13 16.1209 1109.94 15.6269C1110.76 15.1338 1111.73 14.8868 1112.87 14.8868C1114.23 14.8868 1115.33 15.2218 1116.2 15.8929C1117.06 16.5639 1117.6 17.506 1117.82 18.7191H1115.55C1115.41 18.1071 1115.11 17.626 1114.65 17.278C1114.2 16.929 1113.59 16.754 1112.84 16.754C1111.8 16.754 1110.98 17.108 1110.39 17.817C1109.8 18.5251 1109.51 19.4972 1109.51 20.7313C1109.51 21.9664 1109.8 22.9355 1110.39 23.6385C1110.98 24.3416 1111.8 24.6926 1112.84 24.6926C1113.59 24.6926 1114.2 24.5296 1114.65 24.2016C1115.11 23.8745 1115.41 23.4205 1115.55 22.8404H1117.82C1117.6 24.0005 1117.06 24.9076 1116.2 25.5617C1115.33 26.2167 1114.23 26.5447 1112.87 26.5447Z" fill="#BBA591"/>
<path fill-rule="evenodd" clip-rule="evenodd" d="M1123.42 26.5446C1122.65 26.5446 1121.95 26.3676 1121.34 26.0136C1120.72 25.6586 1120.23 25.1675 1119.87 24.5395C1119.51 23.9114 1119.33 23.1844 1119.33 22.3573C1119.33 21.5312 1119.51 20.8042 1119.88 20.1761C1120.24 19.5481 1120.73 19.057 1121.35 18.703C1121.97 18.348 1122.66 18.171 1123.44 18.171C1124.2 18.171 1124.89 18.348 1125.51 18.703C1126.12 19.057 1126.61 19.5481 1126.97 20.1761C1127.33 20.8042 1127.51 21.5312 1127.51 22.3573C1127.51 23.1844 1127.33 23.9114 1126.97 24.5395C1126.61 25.1675 1126.12 25.6586 1125.5 26.0136C1124.87 26.3676 1124.18 26.5446 1123.42 26.5446ZM1123.44 19.9581C1122.89 19.9581 1122.42 20.1601 1122.03 20.5622C1121.63 20.9652 1121.44 21.5632 1121.44 22.3573C1121.44 23.1524 1121.63 23.7504 1122.03 24.1535C1122.42 24.5555 1122.88 24.7565 1123.42 24.7565C1123.96 24.7565 1124.42 24.5555 1124.82 24.1535C1125.22 23.7504 1125.42 23.1524 1125.42 22.3573C1125.42 21.5632 1125.22 20.9652 1124.82 20.5622C1124.42 20.1601 1123.96 19.9581 1123.44 19.9581Z" fill="#BBA591"/>
<path d="M1139.23 18.1714C1138.65 18.1714 1138.12 18.2994 1137.63 18.5574C1137.14 18.8154 1136.75 19.1645 1136.46 19.6045C1135.95 18.6494 1135.07 18.1714 1133.84 18.1714C1133.28 18.1714 1132.79 18.2864 1132.36 18.5174C1131.94 18.7484 1131.6 19.0564 1131.34 19.4435L1131.16 18.3644H1129.34V26.351H1131.41V22.2287C1131.41 21.4996 1131.58 20.9306 1131.91 20.5226C1132.25 20.1145 1132.69 19.9105 1133.24 19.9105C1133.8 19.9105 1134.21 20.0925 1134.48 20.4576C1134.75 20.8226 1134.88 21.3486 1134.88 22.0357V26.351H1136.95V22.2287C1136.95 21.4996 1137.11 20.9306 1137.45 20.5226C1137.79 20.1145 1138.24 19.9105 1138.8 19.9105C1139.34 19.9105 1139.75 20.0925 1140.01 20.4576C1140.28 20.8226 1140.41 21.3486 1140.41 22.0357V26.351H1142.47V21.8427C1142.47 20.6406 1142.19 19.7275 1141.63 19.1054C1141.07 18.4834 1140.27 18.1714 1139.23 18.1714Z" fill="#BBA591"/>
<path fill-rule="evenodd" clip-rule="evenodd" d="M1151.18 18.7186C1151.77 19.0836 1152.24 19.5827 1152.58 20.2157C1152.92 20.8498 1153.1 21.5688 1153.1 22.3739C1153.1 23.179 1152.92 23.895 1152.58 24.5231C1152.24 25.1511 1151.77 25.6452 1151.18 26.0052C1150.59 26.3642 1149.92 26.5442 1149.17 26.5442C1148.57 26.5442 1148.04 26.4322 1147.59 26.2062C1147.14 25.9812 1146.77 25.6642 1146.49 25.2561V29.8935H1144.43V18.3646H1146.27L1146.49 19.5077C1146.75 19.1537 1147.09 18.8426 1147.52 18.5736C1147.94 18.3056 1148.49 18.1716 1149.17 18.1716C1149.92 18.1716 1150.59 18.3536 1151.18 18.7186ZM1148.73 24.7411C1149.39 24.7411 1149.93 24.5211 1150.36 24.081C1150.79 23.641 1151 23.072 1151 22.3739C1151 21.6759 1150.79 21.1018 1150.36 20.6508C1149.93 20.2007 1149.39 19.9747 1148.73 19.9747C1148.07 19.9747 1147.52 20.1977 1147.1 20.6428C1146.67 21.0888 1146.46 21.6599 1146.46 22.3579C1146.46 23.056 1146.67 23.627 1147.1 24.073C1147.52 24.5181 1148.07 24.7411 1148.73 24.7411Z" fill="#BBA591"/>
<path fill-rule="evenodd" clip-rule="evenodd" d="M1158.17 21.6333C1157.01 21.6333 1156.14 21.8643 1155.56 22.3253C1154.98 22.7873 1154.69 23.3884 1154.69 24.1285C1154.69 24.5695 1154.8 24.9715 1155.01 25.3366C1155.23 25.7016 1155.55 25.9946 1155.99 26.2146C1156.43 26.4346 1157 26.5446 1157.69 26.5446C1158.35 26.5446 1158.9 26.4046 1159.32 26.1256C1159.74 25.8466 1160.07 25.4926 1160.31 25.0625L1160.5 26.3516H1162.26V21.4402C1162.26 20.3992 1161.93 19.5941 1161.28 19.024C1160.62 18.456 1159.72 18.171 1158.59 18.171C1157.92 18.171 1157.32 18.287 1156.78 18.518C1156.25 18.749 1155.81 19.079 1155.47 19.5081C1155.13 19.9371 1154.94 20.4412 1154.88 21.0212H1156.9C1156.97 20.6352 1157.16 20.3421 1157.48 20.1441C1157.79 19.9451 1158.15 19.8461 1158.57 19.8461C1159.03 19.8461 1159.42 19.9751 1159.73 20.2321C1160.04 20.4902 1160.2 20.8922 1160.2 21.4402V21.6333H1158.17ZM1159.53 24.3545C1159.2 24.7405 1158.74 24.9345 1158.15 24.9345C1157.77 24.9345 1157.46 24.8485 1157.22 24.6765C1156.98 24.5045 1156.86 24.2635 1156.86 23.9524C1156.86 23.6624 1156.98 23.4174 1157.22 23.2194C1157.46 23.0214 1157.85 22.9214 1158.39 22.9214H1160.15C1160.06 23.4904 1159.86 23.9684 1159.53 24.3545Z" fill="#BBA591"/>
<path d="M1172.05 21.8429V26.3512H1169.99V22.0359C1169.99 21.3488 1169.85 20.8228 1169.57 20.4578C1169.29 20.0927 1168.85 19.9107 1168.26 19.9107C1167.69 19.9107 1167.21 20.1147 1166.84 20.5218C1166.47 20.9308 1166.28 21.4988 1166.28 22.2289V26.3512H1164.22V18.3646H1166.04L1166.2 19.7167C1166.45 19.2447 1166.81 18.8696 1167.27 18.5896C1167.74 18.3106 1168.29 18.1716 1168.92 18.1716C1169.91 18.1716 1170.68 18.4826 1171.23 19.1046C1171.77 19.7277 1172.05 20.6408 1172.05 21.8429Z" fill="#BBA591"/>
<path d="M1176.59 25.82L1174.74 29.8943H1176.93L1182 18.3644H1179.81L1177.48 23.9848L1175.24 18.3644H1173L1176.11 25.82H1176.59Z" fill="#BBA591"/>
<path d="M1107.11 34.4022H1115.76V36.0603H1112.45V45.6741H1110.39V36.0603H1107.11V34.4022Z" fill="#BBA591"/>
<path fill-rule="evenodd" clip-rule="evenodd" d="M1121.76 38.0098C1121.16 37.6658 1120.47 37.4947 1119.68 37.4947C1118.85 37.4947 1118.12 37.6738 1117.5 38.0338C1116.88 38.3928 1116.4 38.8948 1116.05 39.5389C1115.7 40.184 1115.53 40.918 1115.53 41.7451C1115.53 42.5611 1115.71 43.2802 1116.06 43.9033C1116.42 44.5263 1116.9 45.0083 1117.53 45.3524C1118.15 45.6964 1118.86 45.8684 1119.67 45.8684C1120.31 45.8684 1120.89 45.7484 1121.4 45.5124C1121.91 45.2764 1122.34 44.9523 1122.69 44.5393C1123.04 44.1253 1123.29 43.6662 1123.44 43.1622H1121.34C1121.2 43.4632 1120.99 43.7072 1120.71 43.8953C1120.42 44.0823 1120.07 44.1763 1119.65 44.1763C1119.09 44.1763 1118.62 43.9983 1118.23 43.6452C1117.83 43.2912 1117.62 42.8032 1117.57 42.1801H1123.65C1123.66 42.0391 1123.66 41.9071 1123.67 41.7781C1123.67 41.6491 1123.68 41.5261 1123.68 41.4071C1123.68 40.676 1123.51 40.0139 1123.17 39.4179C1122.83 38.8228 1122.36 38.3538 1121.76 38.0098ZM1117.61 40.891C1117.71 40.313 1117.96 39.8789 1118.35 39.5959C1118.73 39.3109 1119.18 39.1679 1119.68 39.1679C1120.21 39.1679 1120.65 39.3249 1121 39.6349C1121.36 39.9479 1121.55 40.366 1121.58 40.891H1117.61Z" fill="#BBA591"/>
<path d="M1128.35 40.5219L1130.36 37.6877H1132.58L1129.67 41.68L1132.58 45.6743H1130.36L1128.35 42.8401L1126.32 45.6743H1124.11L1127.01 41.68L1124.11 37.6877H1126.32L1128.35 40.5219Z" fill="#BBA591"/>
<path d="M1136.75 35.5449H1134.93L1134.69 37.6881H1133.32V39.4102H1134.69V42.8895C1134.69 43.9306 1134.94 44.6546 1135.45 45.0616C1135.95 45.4697 1136.62 45.6747 1137.46 45.6747H1138.86V43.9186H1137.86C1137.45 43.9186 1137.17 43.8465 1137 43.7015C1136.83 43.5575 1136.75 43.2915 1136.75 42.9045V39.4102H1138.91V37.6881H1136.75V35.5449Z" fill="#BBA591"/>
<path d="M1144.56 34.4022H1146.62V44.063H1151.61V45.6741H1144.56V34.4022Z" fill="#BBA591"/>
<path fill-rule="evenodd" clip-rule="evenodd" d="M1158.95 38.0258C1158.33 37.6717 1157.64 37.4947 1156.88 37.4947C1156.11 37.4947 1155.41 37.6717 1154.79 38.0258C1154.18 38.3788 1153.69 38.8708 1153.32 39.4979C1152.96 40.1269 1152.77 40.854 1152.77 41.6801C1152.77 42.5081 1152.95 43.2352 1153.31 43.8623C1153.67 44.4913 1154.16 44.9813 1154.78 45.3364C1155.4 45.6904 1156.09 45.8684 1156.86 45.8684C1157.63 45.8684 1158.32 45.6904 1158.94 45.3364C1159.56 44.9813 1160.05 44.4913 1160.41 43.8623C1160.77 43.2352 1160.95 42.5081 1160.95 41.6801C1160.95 40.854 1160.77 40.1269 1160.41 39.4979C1160.05 38.8708 1159.57 38.3788 1158.95 38.0258ZM1158.26 43.4752C1157.87 43.8793 1157.4 44.0803 1156.86 44.0803C1156.33 44.0803 1155.86 43.8793 1155.47 43.4752C1155.08 43.0732 1154.88 42.4751 1154.88 41.6801C1154.88 40.887 1155.08 40.287 1155.47 39.8849C1155.86 39.4829 1156.33 39.2819 1156.88 39.2819C1157.41 39.2819 1157.87 39.4829 1158.26 39.8849C1158.66 40.287 1158.86 40.887 1158.86 41.6801C1158.86 42.4751 1158.66 43.0732 1158.26 43.4752Z" fill="#BBA591"/>
<path fill-rule="evenodd" clip-rule="evenodd" d="M1163.92 37.8812C1164.4 37.6231 1164.98 37.4941 1165.67 37.4941C1166.12 37.4941 1166.54 37.5591 1166.93 37.6872H1169.95V38.9433L1168.59 39.0393C1168.8 39.4473 1168.91 39.8983 1168.91 40.3934C1168.91 40.9304 1168.78 41.4185 1168.52 41.8575C1168.26 42.2975 1167.89 42.6466 1167.4 42.9046C1166.91 43.1626 1166.34 43.2916 1165.67 43.2916C1165.28 43.2916 1164.93 43.2486 1164.59 43.1626L1164 43.7586C1164.18 43.8547 1164.43 43.9347 1164.74 43.9987C1165.05 44.0637 1165.55 44.1277 1166.25 44.1917C1167.31 44.2897 1168.09 44.5417 1168.57 44.9497C1169.05 45.3578 1169.29 45.9208 1169.29 46.6399C1169.29 47.1119 1169.17 47.562 1168.91 47.985C1168.65 48.409 1168.25 48.753 1167.72 49.0151C1167.18 49.2781 1166.49 49.4091 1165.66 49.4091C1164.52 49.4091 1163.6 49.1981 1162.9 48.774C1162.2 48.351 1161.86 47.714 1161.86 46.8659C1161.86 46.1468 1162.2 45.5238 1162.9 44.9987C1162.69 44.9007 1162.5 44.7997 1162.35 44.6917C1162.19 44.5847 1162.05 44.4717 1161.94 44.3547V43.9827L1163.34 42.5025C1162.71 41.9535 1162.4 41.2524 1162.4 40.3934C1162.4 39.8553 1162.53 39.3673 1162.8 38.9283C1163.06 38.4862 1163.43 38.1392 1163.92 37.8812ZM1165.67 41.7135C1166.09 41.7135 1166.44 41.6005 1166.71 41.3755C1166.98 41.1484 1167.12 40.8264 1167.12 40.4084C1167.12 39.9903 1166.98 39.6683 1166.71 39.4413C1166.44 39.2173 1166.09 39.1043 1165.67 39.1043C1165.23 39.1043 1164.88 39.2173 1164.61 39.4413C1164.34 39.6683 1164.21 39.9903 1164.21 40.4084C1164.21 40.8264 1164.34 41.1484 1164.61 41.3755C1164.88 41.6005 1165.23 41.7135 1165.67 41.7135ZM1165.83 45.6098C1165.39 45.5768 1164.98 45.5298 1164.61 45.4658C1164.3 45.6378 1164.07 45.8248 1163.94 46.0278C1163.81 46.2308 1163.74 46.4419 1163.74 46.6569C1163.74 47.0539 1163.92 47.3509 1164.29 47.55C1164.67 47.749 1165.12 47.849 1165.66 47.849C1166.17 47.849 1166.59 47.743 1166.91 47.534C1167.23 47.3249 1167.39 47.0419 1167.39 46.6879C1167.39 46.3989 1167.29 46.1568 1167.08 45.9638C1166.87 45.7708 1166.45 45.6528 1165.83 45.6098Z" fill="#BBA591"/>
<path fill-rule="evenodd" clip-rule="evenodd" d="M1177.05 38.0258C1176.43 37.6717 1175.74 37.4947 1174.98 37.4947C1174.21 37.4947 1173.51 37.6717 1172.89 38.0258C1172.28 38.3788 1171.79 38.8708 1171.42 39.4979C1171.06 40.1269 1170.87 40.854 1170.87 41.6801C1170.87 42.5081 1171.05 43.2352 1171.41 43.8623C1171.77 44.4913 1172.26 44.9813 1172.88 45.3364C1173.5 45.6904 1174.19 45.8684 1174.96 45.8684C1175.72 45.8684 1176.42 45.6904 1177.04 45.3364C1177.66 44.9813 1178.15 44.4913 1178.51 43.8623C1178.87 43.2352 1179.05 42.5081 1179.05 41.6801C1179.05 40.854 1178.87 40.1269 1178.51 39.4979C1178.15 38.8708 1177.67 38.3788 1177.05 38.0258ZM1176.36 43.4752C1175.97 43.8793 1175.5 44.0803 1174.96 44.0803C1174.43 44.0803 1173.96 43.8793 1173.57 43.4752C1173.18 43.0732 1172.98 42.4751 1172.98 41.6801C1172.98 40.887 1173.18 40.287 1173.57 39.8849C1173.96 39.4829 1174.43 39.2819 1174.98 39.2819C1175.51 39.2819 1175.97 39.4829 1176.36 39.8849C1176.76 40.287 1176.96 40.887 1176.96 41.6801C1176.96 42.4751 1176.76 43.0732 1176.36 43.4752Z" fill="#BBA591"/>
<path d="M872.552 15.3992C873.287 15.6643 873.956 16.0503 874.559 16.5563C875.137 17.0864 875.607 17.7494 875.97 18.5445C876.331 19.3406 876.512 20.2566 876.512 21.2927V34.8878C876.512 35.9729 876.331 36.901 875.97 37.6721C875.607 38.4441 875.137 39.0822 874.559 39.5882C873.956 40.1192 873.287 40.5173 872.552 40.7823C871.817 41.0463 871.076 41.1793 870.329 41.1793C869.581 41.1793 868.84 41.0463 868.105 40.7823C867.37 40.5173 866.713 40.1192 866.135 39.5882C865.532 39.0822 865.05 38.4441 864.689 37.6721C864.327 36.901 864.146 35.9729 864.146 34.8878V21.2927C864.146 20.2566 864.327 19.3406 864.689 18.5445C865.05 17.7494 865.532 17.0864 866.135 16.5563C866.713 16.0503 867.37 15.6643 868.105 15.3992C868.84 15.1342 869.581 15.0012 870.329 15.0012C871.076 15.0012 871.817 15.1342 872.552 15.3992Z" fill="#BBA591"/>
<path d="M861.001 35.2131V33.622H857.312V34.8881C857.312 35.3952 857.24 35.8172 857.095 36.1532C856.951 36.4913 856.77 36.7563 856.553 36.9493C856.312 37.1423 856.052 37.2803 855.775 37.3643C855.498 37.4493 855.239 37.4913 854.998 37.4913C854.154 37.4913 853.57 37.2383 853.245 36.7323C852.919 36.2262 852.756 35.6002 852.756 34.8521V21.6911C852.756 20.823 852.907 20.1059 853.208 19.5389C853.51 18.9738 854.118 18.6898 855.034 18.6898C855.733 18.6898 856.287 18.9548 856.697 19.4849C857.107 20.0159 857.312 20.642 857.312 21.365V22.5951H861.001V21.149C861.001 20.2569 860.85 19.4309 860.549 18.6718C860.247 17.9118 859.832 17.2557 859.302 16.7007C858.216 15.5676 856.806 15.0015 855.07 15.0015C854.178 15.0015 853.365 15.1515 852.63 15.4536C851.895 15.7556 851.262 16.1706 850.732 16.7007C850.202 17.2317 849.792 17.8577 849.502 18.5808C849.213 19.3049 849.069 20.0879 849.069 20.932V35.1051C849.069 36.2862 849.255 37.2563 849.629 38.0164C850.002 38.7754 850.479 39.3965 851.057 39.8775C851.636 40.3596 852.287 40.6976 853.01 40.8906C853.733 41.0826 854.443 41.1796 855.143 41.1796C855.962 41.1796 856.728 41.0176 857.438 40.6916C858.149 40.3656 858.771 39.9265 859.302 39.3715C859.832 38.8174 860.247 38.1854 860.549 37.4733C860.85 36.7633 861.001 36.0092 861.001 35.2131Z" fill="#BBA591"/>
<path d="M910.898 17.0263C911.525 17.7013 911.959 18.4914 912.199 19.3945C912.441 20.2985 912.56 21.5226 912.56 23.0648C912.56 24.2219 912.494 25.1979 912.363 25.994C912.23 26.7891 911.947 27.5371 911.513 28.2352C911.008 29.0793 910.332 29.7363 909.488 30.2063C908.644 30.6754 907.535 30.9114 906.162 30.9114H904.282V40.9622H900.593V15.2181H906.125C907.138 15.2181 908.029 15.3511 908.801 15.6162C909.572 15.8812 910.271 16.3522 910.898 17.0263Z" fill="#BBA591"/>
<path d="M888.479 28.8503H888.407L883.67 15.2182H880.127V40.9623H883.815V25.306H883.887L887.504 36.3709H889.349L893 25.306H893.072V40.9623H896.759V15.2182H893.181L888.479 28.8503Z" fill="#BBA591"/>
<path fill-rule="evenodd" clip-rule="evenodd" d="M856.716 45.5567C857.1 45.5567 857.436 45.6407 857.723 45.8107C858.012 45.9807 858.236 46.2147 858.397 46.5168C858.558 46.8178 858.638 47.1658 858.638 47.5599C858.638 47.9559 858.558 48.3029 858.397 48.6049C858.236 48.905 858.012 49.14 857.723 49.309C857.436 49.48 857.1 49.565 856.716 49.565C856.333 49.565 855.996 49.48 855.708 49.309C855.42 49.14 855.195 48.905 855.033 48.6049C854.871 48.3029 854.79 47.9559 854.79 47.5599C854.79 47.1658 854.871 46.8178 855.033 46.5168C855.195 46.2147 855.42 45.9807 855.708 45.8107C855.996 45.6407 856.333 45.5567 856.716 45.5567ZM857.411 48.862C857.608 48.7439 857.762 48.5749 857.873 48.3519C857.984 48.1299 858.039 47.8669 858.039 47.5599C858.039 47.2538 857.984 46.9898 857.873 46.7688C857.762 46.5468 857.608 46.3778 857.411 46.2597C857.214 46.1417 856.982 46.0817 856.716 46.0817C856.451 46.0817 856.218 46.1417 856.018 46.2597C855.819 46.3778 855.665 46.5468 855.556 46.7688C855.448 46.9898 855.394 47.2538 855.394 47.5599C855.394 47.8669 855.448 48.1299 855.556 48.3519C855.665 48.5749 855.819 48.7439 856.018 48.862C856.218 48.979 856.451 49.039 856.716 49.039C856.982 49.039 857.214 48.979 857.411 48.862Z" fill="#BBA591"/>
<path fill-rule="evenodd" clip-rule="evenodd" d="M878.833 45.5567C879.217 45.5567 879.553 45.6407 879.84 45.8107C880.129 45.9807 880.353 46.2147 880.513 46.5168C880.675 46.8178 880.756 47.1658 880.756 47.5599C880.756 47.9559 880.675 48.3029 880.513 48.6049C880.353 48.905 880.129 49.14 879.84 49.309C879.553 49.48 879.217 49.565 878.833 49.565C878.45 49.565 878.113 49.48 877.826 49.309C877.537 49.14 877.312 48.905 877.15 48.6049C876.988 48.3029 876.907 47.9559 876.907 47.5599C876.907 47.1658 876.988 46.8178 877.15 46.5168C877.312 46.2147 877.537 45.9807 877.826 45.8107C878.113 45.6407 878.45 45.5567 878.833 45.5567ZM879.528 48.862C879.725 48.7439 879.879 48.5749 879.99 48.3519C880.101 48.1299 880.157 47.8669 880.157 47.5599C880.157 47.2538 880.101 46.9898 879.99 46.7688C879.879 46.5468 879.725 46.3778 879.528 46.2597C879.331 46.1417 879.099 46.0817 878.833 46.0817C878.568 46.0817 878.335 46.1417 878.135 46.2597C877.937 46.3778 877.783 46.5468 877.673 46.7688C877.565 46.9898 877.511 47.2538 877.511 47.5599C877.511 47.8669 877.565 48.1299 877.673 48.3519C877.783 48.5749 877.937 48.7439 878.135 48.862C878.335 48.979 878.568 49.039 878.833 49.039C879.099 49.039 879.331 48.979 879.528 48.862Z" fill="#BBA591"/>
<path d="M919.111 47.848H920.163C920.13 48.21 920.015 48.499 919.823 48.717C919.629 48.9351 919.34 49.0441 918.956 49.0441C918.576 49.0441 918.272 48.9151 918.043 48.656C917.814 48.398 917.7 48.038 917.7 47.577C917.7 47.1159 917.815 46.7539 918.049 46.4919C918.281 46.2298 918.6 46.0988 919.006 46.0988C919.279 46.0988 919.503 46.1578 919.675 46.2768C919.849 46.3949 919.965 46.5569 920.024 46.7639H920.688C920.599 46.3859 920.408 46.0918 920.113 45.8768C919.817 45.6628 919.448 45.5568 919.006 45.5568C918.614 45.5568 918.276 45.6428 917.99 45.8128C917.704 45.9858 917.484 46.2228 917.329 46.5249C917.173 46.8269 917.096 47.1769 917.096 47.571C917.096 47.971 917.172 48.319 917.323 48.619C917.474 48.9161 917.686 49.1501 917.96 49.3151C918.233 49.4821 918.551 49.5651 918.917 49.5651C919.23 49.5651 919.486 49.5091 919.681 49.3981C919.877 49.2871 920.039 49.1301 920.169 48.9281L920.218 49.4981H920.755V47.3949H919.111V47.848Z" fill="#BBA591"/>
<path d="M931.507 48.5404L929.564 45.6232H928.977V49.4985H929.564V46.5803L931.507 49.4985H932.094V45.6232H931.507V48.5404Z" fill="#BBA591"/>
<path d="M926.552 49.4987H927.139V45.6234H926.552V49.4987Z" fill="#BBA591"/>
<path d="M936.396 49.4985H933.931V45.6232H936.396V46.0992H934.518V47.3063H936.23V47.7704H934.518V49.0215H936.396V49.4985Z" fill="#BBA591"/>
<path d="M943.057 47.2834H941.18V45.6233H940.593V49.4986H941.18V47.7645H943.057V49.4986H943.644V45.6233H943.057V47.2834Z" fill="#BBA591"/>
<path d="M947.944 49.4985H945.48V45.6232H947.944V46.0992H946.067V47.3063H947.778V47.7704H946.067V49.0215H947.944V49.4985Z" fill="#BBA591"/>
<path fill-rule="evenodd" clip-rule="evenodd" d="M952.178 47.4334C952.306 47.2374 952.369 47.0194 952.369 46.7804C952.369 46.5644 952.32 46.3714 952.224 46.1953C952.129 46.0193 951.981 45.8813 951.785 45.7773C951.587 45.6743 951.335 45.6233 951.029 45.6233H949.694V49.4986H950.281V47.9365H950.974L951.726 49.4986H952.408L951.582 47.8535C951.851 47.7695 952.05 47.6295 952.178 47.4334ZM950.995 47.4934H950.281V46.1153H950.99C951.264 46.1153 951.46 46.1773 951.582 46.3013C951.704 46.4254 951.766 46.5904 951.766 46.7974C951.766 47.0034 951.703 47.1714 951.58 47.3004C951.456 47.4294 951.262 47.4934 950.995 47.4934Z" fill="#BBA591"/>
<path d="M956.576 49.4985H954.112V45.6232H956.576V46.0992H954.699V47.3063H956.41V47.7704H954.699V49.0215H956.576V49.4985Z" fill="#BBA591"/>
<path d="M922.521 45.6232H923.108V49.0335H924.869V49.4985H922.521V45.6232Z" fill="#BBA591"/>
<path d="M884.465 48.2025L883.153 45.6233H882.46V49.4986H883.047V46.6414L884.237 48.9446H884.691L885.876 46.6364V49.4986H886.463V45.6233H885.772L884.465 48.2025Z" fill="#BBA591"/>
<path fill-rule="evenodd" clip-rule="evenodd" d="M889.659 45.6235C889.961 45.6235 890.212 45.6725 890.412 45.7745C890.61 45.8775 890.759 46.0135 890.857 46.1905C890.955 46.3656 891.004 46.5636 891.004 46.7856C891.004 46.9956 890.957 47.1876 890.863 47.3646C890.768 47.5397 890.622 47.6787 890.423 47.7817C890.223 47.8837 889.968 47.9367 889.659 47.9367H888.889V49.4988H888.302V45.6235H889.659ZM889.631 47.4556C889.908 47.4556 890.107 47.3946 890.226 47.2756C890.345 47.1546 890.406 46.9926 890.406 46.7856C890.406 46.5706 890.345 46.4046 890.226 46.2845C890.107 46.1645 889.908 46.1045 889.631 46.1045H888.889V47.4556H889.631Z" fill="#BBA591"/>
<path fill-rule="evenodd" clip-rule="evenodd" d="M893.367 45.6231L891.939 49.4984H892.559L892.89 48.5523H894.475L894.808 49.4984H895.428L894.01 45.6231H893.367ZM893.058 48.0853L893.683 46.3202L894.309 48.0853H893.058Z" fill="#BBA591"/>
<path d="M897.606 45.6232L899.551 48.5404V45.6232H900.138V49.4985H899.551L897.606 46.5803V49.4985H897.02V45.6232H897.606Z" fill="#BBA591"/>
<path d="M903.255 47.4934L902.342 45.6233H901.678L902.963 48.0685V49.4986H903.549V48.0685L904.821 45.6233H904.164L903.255 47.4934Z" fill="#BBA591"/>
<path d="M909.716 46.0988H908.57V45.6228H911.444V46.0988H910.303V49.4981H909.716V46.0988Z" fill="#BBA591"/>
<path fill-rule="evenodd" clip-rule="evenodd" d="M913.801 45.6231L912.373 49.4984H912.993L913.325 48.5523H914.908L915.241 49.4984H915.861L914.443 45.6231H913.801ZM913.491 48.0853L914.117 46.3202L914.743 48.0853H913.491Z" fill="#BBA591"/>
<path fill-rule="evenodd" clip-rule="evenodd" d="M867.767 46.7804C867.767 47.0194 867.704 47.2374 867.576 47.4334C867.448 47.6295 867.25 47.7695 866.981 47.8535L867.806 49.4986H867.125L866.372 47.9365H865.679V49.4986H865.092V45.6233H866.427C866.734 45.6233 866.985 45.6743 867.183 45.7773C867.38 45.8813 867.527 46.0193 867.623 46.1953C867.719 46.3714 867.767 46.5644 867.767 46.7804ZM865.679 47.4934H866.394C866.66 47.4934 866.854 47.4294 866.978 47.3004C867.102 47.1714 867.164 47.0034 867.164 46.7974C867.164 46.5904 867.103 46.4254 866.981 46.3013C866.859 46.1773 866.662 46.1153 866.388 46.1153H865.679V47.4934Z" fill="#BBA591"/>
<path d="M873.679 46.0822C873.964 46.0822 874.191 46.1482 874.36 46.2822C874.53 46.4143 874.64 46.5933 874.693 46.8183H875.345C875.269 46.4193 875.086 46.1092 874.797 45.8882C874.51 45.6672 874.139 45.5572 873.684 45.5572C873.302 45.5572 872.97 45.6412 872.691 45.8112C872.412 45.9802 872.198 46.2152 872.046 46.5173C871.895 46.8173 871.82 47.1673 871.82 47.5654C871.82 47.9614 871.895 48.3094 872.046 48.6094C872.198 48.9095 872.412 49.1445 872.691 49.3115C872.97 49.4795 873.302 49.5645 873.684 49.5645C874.139 49.5645 874.51 49.4555 874.797 49.2375C875.086 49.0205 875.269 48.7204 875.345 48.3354H874.693C874.64 48.5534 874.53 48.7254 874.36 48.8505C874.191 48.9765 873.964 49.0385 873.679 49.0385C873.292 49.0385 872.985 48.9065 872.761 48.6454C872.536 48.3844 872.424 48.0234 872.424 47.5654C872.424 47.1043 872.536 46.7413 872.761 46.4783C872.985 46.2142 873.292 46.0822 873.679 46.0822Z" fill="#BBA591"/>
<path d="M862.7 48.0482C862.7 48.3872 862.619 48.6362 862.457 48.7943C862.295 48.9543 862.077 49.0333 861.804 49.0333C861.526 49.0333 861.307 48.9543 861.145 48.7943C860.983 48.6362 860.901 48.3872 860.901 48.0482V45.623H860.314V48.0422C860.314 48.3902 860.381 48.6752 860.511 48.9003C860.641 49.1253 860.819 49.2923 861.042 49.4013C861.265 49.5103 861.515 49.5653 861.793 49.5653C862.066 49.5653 862.316 49.5103 862.542 49.4013C862.769 49.2923 862.95 49.1253 863.086 48.9003C863.221 48.6752 863.287 48.3902 863.287 48.0422V45.623H862.7V48.0482Z" fill="#BBA591"/>
<path d="M918.42 15.2183L912.67 40.9624H916.357L917.443 35.431H922.47L923.554 40.9624H927.241L921.493 15.2183H918.42Z" fill="#BBA591"/>
<path d="M938.451 15.2183H942.139V40.9624H938.668L933.027 25.4872H932.954V40.9624H929.267V15.2183H932.81L938.379 30.7306H938.451V15.2183Z" fill="#BBA591"/>
<path d="M954.107 15.2183L951.142 25.4502H951.07L948.104 15.2183H944.2L949.26 30.0785V40.9624H952.949V30.0785L958.011 15.2183H954.107Z" fill="#BBA591"/>
<path d="M851.169 45.6233L852.082 47.4934L852.991 45.6233H853.648L852.376 48.0685V49.4986H851.79V48.0685L850.505 45.6233H851.169Z" fill="#BBA591"/>
<path fill-rule="evenodd" clip-rule="evenodd" d="M681.258 12.001L669.933 31.6146L681.258 51.2271H703.904L715.229 31.6146L703.904 12.001H681.258ZM682.29 31.6146L687.437 22.7018H697.725L702.872 31.6146L697.725 40.5263H687.437L682.29 31.6146Z" fill="#BBA591"/>
<path d="M632.051 23.4427V25.6459H634.759V39.786H637.102V25.6459H639.811V23.4427H632.051Z" fill="#BBA591"/>
<path d="M648.052 39.7865H641.073V23.4422H648.052V25.6454H643.415V30.4438H647.454V32.6469H643.415V37.4453H648.052V39.7865Z" fill="#BBA591"/>
<path d="M657.418 23.4425H654.938L653.148 28.2859L651.38 23.4425H648.901L651.954 31.2241L648.647 39.7868H651.128L653.148 34.2774L655.191 39.7868H657.67L654.295 31.2241L657.418 23.4425Z" fill="#BBA591"/>
<path d="M660.492 25.6458H657.783V23.4426H665.544V25.6458H662.835V39.7869H660.492V25.6458Z" fill="#BBA591"/>
<path d="M722.999 23.4425H720.657V39.7868H727.637V37.4456H722.999V23.4425Z" fill="#BBA591"/>
<path d="M744.589 23.5571C745.056 23.7261 745.48 23.9701 745.863 24.2912C746.23 24.6282 746.529 25.0492 746.758 25.5543C746.988 26.0593 747.103 26.6414 747.103 27.2984V28.1255H744.761V27.2984C744.761 26.7324 744.604 26.3153 744.29 26.0473C743.975 25.7793 743.604 25.6453 743.176 25.6453C742.749 25.6453 742.378 25.7793 742.063 26.0473C741.749 26.3153 741.592 26.7324 741.592 27.2984V35.9301C741.592 36.4962 741.749 36.9132 742.063 37.1812C742.378 37.4492 742.749 37.5832 743.176 37.5832C743.604 37.5832 743.975 37.4492 744.29 37.1812C744.604 36.9132 744.761 36.4962 744.761 35.9301V32.8549H742.901V30.7877H747.103V35.9301C747.103 36.6182 746.988 37.2082 746.758 37.6973C746.529 38.1883 746.23 38.5933 745.863 38.9144C745.48 39.2514 745.056 39.5034 744.589 39.6714C744.122 39.8404 743.651 39.9244 743.176 39.9244C742.702 39.9244 742.231 39.8404 741.764 39.6714C741.298 39.5034 740.882 39.2514 740.514 38.9144C740.132 38.5933 739.825 38.1883 739.596 37.6973C739.366 37.2082 739.251 36.6182 739.251 35.9301V27.2984C739.251 26.6414 739.366 26.0593 739.596 25.5543C739.825 25.0492 740.132 24.6282 740.514 24.2912C740.882 23.9701 741.298 23.7261 741.764 23.5571C742.231 23.3891 742.702 23.3051 743.176 23.3051C743.651 23.3051 744.122 23.3891 744.589 23.5571Z" fill="#BBA591"/>
<path fill-rule="evenodd" clip-rule="evenodd" d="M735.854 24.2909C735.471 23.9698 735.047 23.7258 734.58 23.5568C734.113 23.3888 733.643 23.3048 733.168 23.3048C732.693 23.3048 732.223 23.3888 731.756 23.5568C731.289 23.7258 730.873 23.9698 730.506 24.2909C730.123 24.6279 729.816 25.0489 729.588 25.554C729.357 26.059 729.242 26.6411 729.242 27.2981V35.9298C729.242 36.6179 729.357 37.2079 729.588 37.698C729.816 38.188 730.123 38.593 730.506 38.9141C730.873 39.2511 731.289 39.5031 731.756 39.6711C732.223 39.8401 732.693 39.9241 733.168 39.9241C733.643 39.9241 734.113 39.8401 734.58 39.6711C735.047 39.5031 735.471 39.2511 735.854 38.9141C736.222 38.593 736.521 38.188 736.749 37.698C736.98 37.2079 737.095 36.6179 737.095 35.9298V27.2981C737.095 26.6411 736.98 26.059 736.749 25.554C736.521 25.0489 736.222 24.6279 735.854 24.2909ZM734.752 35.9298C734.752 36.4959 734.596 36.9129 734.281 37.1809C733.967 37.4499 733.596 37.5829 733.168 37.5829C732.74 37.5829 732.369 37.4499 732.055 37.1809C731.74 36.9129 731.584 36.4959 731.584 35.9298V27.2981C731.584 26.7331 731.74 26.316 732.055 26.047C732.369 25.78 732.74 25.646 733.168 25.646C733.596 25.646 733.967 25.78 734.281 26.047C734.596 26.316 734.752 26.7331 734.752 27.2981V35.9298Z" fill="#BBA591"/>
<path fill-rule="evenodd" clip-rule="evenodd" d="M755.872 24.2909C756.239 24.6279 756.538 25.0489 756.766 25.554C756.997 26.059 757.112 26.6411 757.112 27.2981V35.9298C757.112 36.6179 756.997 37.2079 756.766 37.698C756.538 38.188 756.239 38.593 755.872 38.9141C755.489 39.2511 755.065 39.5031 754.598 39.6711C754.131 39.8401 753.661 39.9241 753.185 39.9241C752.71 39.9241 752.24 39.8401 751.773 39.6711C751.306 39.5031 750.89 39.2511 750.523 38.9141C750.14 38.593 749.833 38.188 749.605 37.698C749.374 37.2079 749.259 36.6179 749.259 35.9298V27.2981C749.259 26.6411 749.374 26.059 749.605 25.554C749.833 25.0489 750.14 24.6279 750.523 24.2909C750.89 23.9698 751.306 23.7258 751.773 23.5568C752.24 23.3888 752.71 23.3048 753.185 23.3048C753.661 23.3048 754.131 23.3888 754.598 23.5568C755.065 23.7258 755.489 23.9698 755.872 24.2909ZM754.299 37.1809C754.614 36.9129 754.77 36.4959 754.77 35.9298V27.2981C754.77 26.7331 754.614 26.316 754.299 26.047C753.985 25.78 753.614 25.646 753.185 25.646C752.757 25.646 752.386 25.78 752.072 26.047C751.757 26.316 751.601 26.7331 751.601 27.2981V35.9298C751.601 36.4959 751.757 36.9129 752.072 37.1809C752.386 37.4499 752.757 37.5829 753.185 37.5829C753.614 37.5829 753.985 37.4499 754.299 37.1809Z" fill="#BBA591"/>
<path d="M476.204 2.00016V18.6585L459.545 2.00016V45.4467H519.65L476.204 2.00016Z" fill="#BBA591"/>
<path d="M464.186 55.486C464.746 55.486 465.196 55.617 465.536 55.877C465.876 56.136 466.098 56.4951 466.202 56.9501H467.894C467.734 56.047 467.332 55.344 466.688 54.8439C466.044 54.3439 465.218 54.0939 464.21 54.0939C463.362 54.0939 462.634 54.2779 462.026 54.6459C461.418 55.014 460.95 55.526 460.622 56.1821C460.294 56.8391 460.13 57.5942 460.13 58.4502C460.13 59.3063 460.294 60.0604 460.622 60.7134C460.95 61.3655 461.418 61.8735 462.026 62.2365C462.634 62.6006 463.362 62.7826 464.21 62.7826C465.218 62.7826 466.044 62.5396 466.688 62.0505C467.332 61.5625 467.734 60.8864 467.894 60.0224H466.202C466.098 60.4554 465.876 60.7934 465.536 61.0374C465.196 61.2815 464.746 61.4025 464.186 61.4025C463.41 61.4025 462.802 61.1405 462.362 60.6164C461.922 60.0924 461.702 59.3713 461.702 58.4502C461.702 57.5312 461.922 56.8061 462.362 56.2781C462.802 55.751 463.41 55.486 464.186 55.486Z" fill="#BBA591"/>
<path fill-rule="evenodd" clip-rule="evenodd" d="M477.663 54.6459C477.031 54.2779 476.299 54.0939 475.467 54.0939C474.627 54.0939 473.893 54.2779 473.265 54.6459C472.636 55.014 472.144 55.524 471.788 56.176C471.432 56.8291 471.254 57.5832 471.254 58.4382C471.254 59.2953 471.432 60.0484 471.788 60.7004C472.144 61.3525 472.636 61.8635 473.265 62.2305C473.893 62.5986 474.627 62.7826 475.467 62.7826C476.299 62.7826 477.031 62.5986 477.663 62.2305C478.295 61.8635 478.787 61.3525 479.139 60.7004C479.491 60.0484 479.667 59.2953 479.667 58.4382C479.667 57.5832 479.491 56.8291 479.139 56.176C478.787 55.524 478.295 55.014 477.663 54.6459ZM477.381 60.6104C476.905 61.1384 476.267 61.4025 475.467 61.4025C474.667 61.4025 474.027 61.1384 473.547 60.6104C473.067 60.0834 472.826 59.3583 472.826 58.4382C472.826 57.5182 473.067 56.7951 473.547 56.2661C474.027 55.738 474.667 55.474 475.467 55.474C476.267 55.474 476.905 55.738 477.381 56.2661C477.857 56.7951 478.095 57.5182 478.095 58.4382C478.095 59.3583 477.857 60.0834 477.381 60.6104Z" fill="#BBA591"/>
<path d="M485.127 54.2379L487.804 59.5663L490.443 54.2379H492.267V62.6386H490.731V56.8421L488.392 61.4385H487.18L484.839 56.8421V62.6386H483.304V54.2379H485.127Z" fill="#BBA591"/>
<path fill-rule="evenodd" clip-rule="evenodd" d="M500.956 54.5737C500.517 54.3497 499.959 54.2377 499.288 54.2377H496.18V62.6394H497.715V59.3871H499.288C499.976 59.3871 500.54 59.2681 500.981 59.0321C501.42 58.7971 501.745 58.484 501.953 58.097C502.161 57.709 502.265 57.2829 502.265 56.8179C502.265 56.3309 502.157 55.8898 501.941 55.4988C501.725 55.1058 501.397 54.7987 500.956 54.5737ZM500.351 57.785C500.114 58.02 499.728 58.139 499.192 58.139H497.715V55.4858H499.192C499.728 55.4858 500.114 55.6038 500.351 55.8408C500.586 56.0768 500.705 56.4019 500.705 56.8179C500.705 57.2259 500.586 57.549 500.351 57.785Z" fill="#BBA591"/>
<path fill-rule="evenodd" clip-rule="evenodd" d="M504.305 62.6394L507.376 54.2377H509.105L512.177 62.6394H510.544L509.872 60.6942H506.597L505.913 62.6394H504.305ZM508.229 56.0028L507.017 59.4951H509.453L508.229 56.0028Z" fill="#BBA591"/>
<path d="M521.021 60.1543L517.073 54.2378H515.538V62.6385H517.073V56.734L521.021 62.6385H522.557V54.2378H521.021V60.1543Z" fill="#BBA591"/>
<path d="M529.422 58.1141L531.271 54.2378H532.987L530.179 59.6502V62.6385H528.643V59.6502L525.822 54.2378H527.563L529.422 58.1141Z" fill="#BBA591"/>
<path fill-rule="evenodd" clip-rule="evenodd" d="M444.036 62.6397L447.109 54.238H448.837L451.91 62.6397H450.277L449.605 60.6945H446.329L445.645 62.6397H444.036ZM449.184 59.4954L447.96 56.0031L446.748 59.4954H449.184Z" fill="#BBA591"/>
<path d="M233.91 0L212.017 21.8938L220.502 30.3765L233.911 16.9684L247.319 30.3765L255.804 21.8938L233.91 0Z" fill="#BBA591"/>
<path d="M212.017 43.1036L233.91 64.9974L255.803 43.1036L233.91 21.2108L212.017 43.1036Z" fill="#BBA591"/>
<path fill-rule="evenodd" clip-rule="evenodd" d="M286.332 38.5099C287.046 38.0029 287.549 37.3098 287.842 36.4297C288.135 35.5507 288.283 34.5316 288.283 33.3745V25.3629C288.283 24.1908 288.131 23.1717 287.83 22.3076C287.53 21.4435 287.018 20.7745 286.297 20.2984C285.576 19.8224 284.597 19.5854 283.36 19.5854C282.108 19.5854 281.121 19.8224 280.401 20.2984C279.679 20.7745 279.164 21.4435 278.855 22.3076C278.546 23.1717 278.392 24.1908 278.392 25.3629V33.3515C278.392 34.5086 278.537 35.5347 278.831 36.4297C279.124 37.3248 279.631 38.0229 280.353 38.5229C281.074 39.022 282.076 39.271 283.36 39.271C284.629 39.271 285.619 39.018 286.332 38.5099ZM280.472 35.8827C280.305 35.2737 280.222 34.5636 280.222 33.7555V25.0298C280.222 24.2218 280.305 23.5167 280.472 22.9137C280.638 22.3126 280.948 21.8486 281.399 21.5235C281.851 21.1985 282.504 21.0355 283.36 21.0355C284.201 21.0355 284.843 21.1985 285.286 21.5235C285.73 21.8486 286.035 22.3126 286.202 22.9137C286.369 23.5167 286.452 24.2218 286.452 25.0298V33.7555C286.452 34.5636 286.369 35.2737 286.202 35.8827C286.035 36.4928 285.73 36.9688 285.286 37.3098C284.843 37.6508 284.201 37.8199 283.36 37.8199C282.504 37.8199 281.851 37.6508 281.399 37.3098C280.948 36.9688 280.638 36.4928 280.472 35.8827Z" fill="#BBA591"/>
<path d="M272.352 19.5855C273.51 19.5855 274.417 19.8075 275.074 20.2515C275.732 20.6946 276.204 21.3246 276.489 22.1417C276.774 22.9578 276.917 23.9288 276.917 25.0539V26.219H275.205V25.1019C275.205 24.2619 275.137 23.5398 275.003 22.9378C274.868 22.3357 274.595 21.8677 274.183 21.5346C273.77 21.2016 273.169 21.0356 272.376 21.0356C271.505 21.0356 270.85 21.2146 270.415 21.5706C269.978 21.9277 269.685 22.4307 269.535 23.0808C269.385 23.7308 269.309 24.4829 269.309 25.339V33.5416C269.309 34.4917 269.4 35.2848 269.583 35.9188C269.764 36.5529 270.078 37.0279 270.522 37.3459C270.966 37.6619 271.584 37.82 272.376 37.82C273.184 37.82 273.791 37.6469 274.195 37.2979C274.599 36.9489 274.868 36.4619 275.003 35.8358C275.137 35.2098 275.205 34.4767 275.205 33.6366V32.3765H276.917V33.5176C276.917 34.6437 276.786 35.6378 276.524 36.5009C276.263 37.3649 275.803 38.043 275.145 38.534C274.488 39.0251 273.556 39.2711 272.352 39.2711C271.053 39.2711 270.051 39.0021 269.345 38.463C268.639 37.924 268.152 37.1989 267.883 36.2868C267.613 35.3758 267.479 34.3657 267.479 33.2556V25.601C267.479 24.4119 267.617 23.3658 267.895 22.4627C268.172 21.5586 268.668 20.8546 269.381 20.3465C270.094 19.8395 271.084 19.5855 272.352 19.5855Z" fill="#BBA591"/>
<path d="M326.271 45.3649H328.005V45.0298H326.684V44.1488H327.888V43.8217H326.684V42.9717H328.005V42.6367H326.271V45.3649Z" fill="#BBA591"/>
<path d="M323.196 42.6369L324.565 44.691V42.6369H324.978V45.3651H324.565L323.196 43.3109V45.3651H322.783V42.6369H323.196Z" fill="#BBA591"/>
<path d="M321.489 45.3654H321.076V42.6371H321.489V45.3654Z" fill="#BBA591"/>
<path d="M331.373 43.8061H332.694V42.6371H333.107V45.3653H332.694V44.1452H331.373V45.3653H330.96V42.6371H331.373V43.8061Z" fill="#BBA591"/>
<path d="M334.4 45.3649H336.135V45.0298H334.813V44.1488H336.018V43.8217H334.813V42.9717H336.135V42.6367H334.4V45.3649Z" fill="#BBA591"/>
<path fill-rule="evenodd" clip-rule="evenodd" d="M339.25 43.4516C339.25 43.6206 339.205 43.7736 339.115 43.9117C339.025 44.0497 338.886 44.1477 338.696 44.2077L339.277 45.3648H338.798L338.266 44.2657H337.779V45.3648H337.366V42.6376H338.305C338.522 42.6376 338.699 42.6736 338.839 42.7456C338.977 42.8186 339.081 42.9166 339.148 43.0406C339.216 43.1636 339.25 43.3006 339.25 43.4516ZM337.779 43.9537H338.282C338.47 43.9537 338.607 43.9087 338.694 43.8176C338.781 43.7266 338.825 43.6086 338.825 43.4636C338.825 43.3176 338.782 43.2016 338.696 43.1146C338.61 43.0266 338.471 42.9836 338.278 42.9836H337.779V43.9537Z" fill="#BBA591"/>
<path d="M340.476 45.3649H342.21V45.0298H340.889V44.1488H342.093V43.8217H340.889V42.9717H342.21V42.6367H340.476V45.3649Z" fill="#BBA591"/>
<path d="M295.676 39.0338L292.038 23.7225L291.658 39.0338H290.159L290.635 19.7762H292.442L296.246 36.4896L300.121 19.7762H301.928L302.403 39.0338H300.905L300.525 23.6985L296.841 39.0338H295.676Z" fill="#BBA591"/>
<path fill-rule="evenodd" clip-rule="evenodd" d="M311.949 29.2386C312.622 28.7785 313.106 28.1645 313.4 27.3954C313.693 26.6274 313.839 25.7913 313.839 24.8872C313.839 23.8571 313.7 22.9621 313.423 22.201C313.146 21.4399 312.674 20.8449 312.009 20.4179C311.343 19.9898 310.432 19.7758 309.275 19.7758H304.661V39.0334H306.469V29.9276H309.298C310.392 29.9276 311.276 29.6976 311.949 29.2386ZM306.469 28.5725V21.1309H308.799C309.656 21.1309 310.317 21.2379 310.784 21.4519C311.251 21.666 311.58 22.047 311.771 22.593C311.961 23.1391 312.056 23.9051 312.056 24.8872C312.056 25.8063 311.946 26.5363 311.724 27.0744C311.501 27.6134 311.149 27.9985 310.665 28.2275C310.182 28.4575 309.552 28.5725 308.776 28.5725H306.469Z" fill="#BBA591"/>
<path fill-rule="evenodd" clip-rule="evenodd" d="M319.143 19.776L323.232 39.0336H321.448L320.497 33.8741H315.908L314.934 39.0336H313.174L317.239 19.776H319.143ZM318.215 22.1762L316.17 32.566H320.26L318.215 22.1762Z" fill="#BBA591"/>
<path d="M332.052 34.7302L325.917 19.776H324.61V39.0336H326.179V23.9133L332.337 39.0336H333.621V19.776H332.052V34.7302Z" fill="#BBA591"/>
<path d="M340.847 39.0334H339.088V32.6368L334.737 19.7758H336.496L339.967 30.4737L343.297 19.7758H345.079L340.847 32.6368V39.0334Z" fill="#BBA591"/>
<path d="M268.656 43.9537L268.013 42.6376H267.546L268.45 44.3587V45.3648H268.863V44.3587L269.759 42.6376H269.296L268.656 43.9537Z" fill="#BBA591"/>
<path fill-rule="evenodd" clip-rule="evenodd" d="M271.918 42.59C272.188 42.59 272.424 42.6501 272.627 42.7691C272.83 42.8891 272.988 43.0541 273.1 43.2661C273.213 43.4781 273.27 43.7231 273.27 44.0002C273.27 44.2792 273.213 44.5242 273.1 44.7362C272.988 44.9472 272.83 45.1133 272.627 45.2323C272.424 45.3523 272.188 45.4123 271.918 45.4123C271.648 45.4123 271.411 45.3523 271.209 45.2323C271.005 45.1133 270.847 44.9472 270.733 44.7362C270.619 44.5242 270.562 44.2792 270.562 44.0002C270.562 43.7231 270.619 43.4781 270.733 43.2661C270.847 43.0541 271.005 42.8891 271.209 42.7691C271.411 42.6501 271.648 42.59 271.918 42.59ZM272.407 44.9162C272.545 44.8332 272.654 44.7142 272.732 44.5582C272.81 44.4022 272.849 44.2162 272.849 44.0002C272.849 43.7861 272.81 43.5991 272.732 43.4441C272.654 43.2871 272.545 43.1681 272.407 43.0851C272.268 43.0021 272.105 42.9601 271.918 42.9601C271.731 42.9601 271.567 43.0021 271.426 43.0851C271.287 43.1681 271.178 43.2871 271.101 43.4441C271.025 43.5991 270.987 43.7861 270.987 44.0002C270.987 44.2162 271.025 44.4022 271.101 44.5582C271.178 44.7142 271.287 44.8332 271.426 44.9162C271.567 44.9992 271.731 45.0412 271.918 45.0412C272.105 45.0412 272.268 44.9992 272.407 44.9162Z" fill="#BBA591"/>
<path d="M276.13 44.3443C276.13 44.5823 276.073 44.7583 275.959 44.8693C275.845 44.9823 275.692 45.0373 275.499 45.0373C275.304 45.0373 275.15 44.9823 275.035 44.8693C274.921 44.7583 274.863 44.5823 274.863 44.3443V42.6371H274.45V44.3403C274.45 44.5843 274.497 44.7853 274.589 44.9443C274.681 45.1024 274.806 45.2204 274.963 45.2964C275.12 45.3734 275.296 45.4114 275.491 45.4114C275.684 45.4114 275.859 45.3734 276.019 45.2964C276.179 45.2204 276.306 45.1024 276.401 44.9443C276.496 44.7853 276.543 44.5843 276.543 44.3403V42.6371H276.13V44.3443Z" fill="#BBA591"/>
<path fill-rule="evenodd" clip-rule="evenodd" d="M279.697 43.4516C279.697 43.6206 279.652 43.7736 279.562 43.9117C279.472 44.0497 279.333 44.1477 279.143 44.2077L279.724 45.3648H279.245L278.714 44.2657H278.227V45.3648H277.814V42.6376H278.753C278.969 42.6376 279.146 42.6736 279.286 42.7456C279.424 42.8186 279.528 42.9166 279.595 43.0406C279.663 43.1636 279.697 43.3006 279.697 43.4516ZM278.227 43.9537H278.73C278.917 43.9537 279.054 43.9087 279.141 43.8176C279.228 43.7266 279.272 43.6086 279.272 43.4636C279.272 43.3176 279.229 43.2016 279.143 43.1146C279.057 43.0266 278.918 42.9836 278.726 42.9836H278.227V43.9537Z" fill="#BBA591"/>
<path d="M283.858 42.9604C284.058 42.9604 284.218 43.0074 284.337 43.1014C284.457 43.1934 284.535 43.3194 284.572 43.4794H285.031C284.977 43.1974 284.848 42.9804 284.645 42.8234C284.443 42.6684 284.182 42.5903 283.862 42.5903C283.592 42.5903 283.359 42.6494 283.163 42.7694C282.966 42.8894 282.815 43.0544 282.709 43.2664C282.602 43.4784 282.549 43.7244 282.549 44.0045C282.549 44.2825 282.602 44.5275 282.709 44.7395C282.815 44.9505 282.966 45.1156 283.163 45.2336C283.359 45.3526 283.592 45.4116 283.862 45.4116C284.182 45.4116 284.443 45.3346 284.645 45.1816C284.848 45.0285 284.977 44.8165 285.031 44.5465H284.572C284.535 44.6995 284.457 44.8205 284.337 44.9085C284.218 44.9975 284.058 45.0415 283.858 45.0415C283.586 45.0415 283.37 44.9485 283.212 44.7645C283.053 44.5805 282.974 44.3265 282.974 44.0045C282.974 43.6804 283.053 43.4244 283.212 43.2384C283.37 43.0534 283.586 42.9604 283.858 42.9604Z" fill="#BBA591"/>
<path fill-rule="evenodd" clip-rule="evenodd" d="M287.487 42.59C287.757 42.59 287.993 42.6501 288.196 42.7691C288.399 42.8891 288.557 43.0541 288.669 43.2661C288.782 43.4781 288.839 43.7231 288.839 44.0002C288.839 44.2792 288.782 44.5242 288.669 44.7362C288.557 44.9472 288.399 45.1133 288.196 45.2323C287.993 45.3523 287.757 45.4123 287.487 45.4123C287.217 45.4123 286.98 45.3523 286.778 45.2323C286.574 45.1133 286.416 44.9472 286.302 44.7362C286.188 44.5242 286.131 44.2792 286.131 44.0002C286.131 43.7231 286.188 43.4781 286.302 43.2661C286.416 43.0541 286.574 42.8891 286.778 42.7691C286.98 42.6501 287.217 42.59 287.487 42.59ZM287.976 44.9162C288.114 44.8332 288.223 44.7142 288.301 44.5582C288.379 44.4022 288.418 44.2162 288.418 44.0002C288.418 43.7861 288.379 43.5991 288.301 43.4441C288.223 43.2871 288.114 43.1681 287.976 43.0851C287.837 43.0021 287.674 42.9601 287.487 42.9601C287.3 42.9601 287.136 43.0021 286.995 43.0851C286.856 43.1681 286.747 43.2871 286.67 43.4441C286.594 43.5991 286.556 43.7861 286.556 44.0002C286.556 44.2162 286.594 44.4022 286.67 44.5582C286.747 44.7142 286.856 44.8332 286.995 44.9162C287.136 44.9992 287.3 45.0412 287.487 45.0412C287.674 45.0412 287.837 44.9992 287.976 44.9162Z" fill="#BBA591"/>
<path d="M291.451 44.4527L290.527 42.6376H290.039V45.3648H290.453V43.3536L291.291 44.9747H291.61L292.444 43.3496V45.3648H292.857V42.6376H292.371L291.451 44.4527Z" fill="#BBA591"/>
<path fill-rule="evenodd" clip-rule="evenodd" d="M295.107 42.6372C295.319 42.6372 295.496 42.6723 295.637 42.7433C295.777 42.8163 295.881 42.9123 295.95 43.0363C296.019 43.1593 296.054 43.2993 296.054 43.4553C296.054 43.6033 296.021 43.7383 295.954 43.8624C295.888 43.9864 295.784 44.0844 295.645 44.1564C295.504 44.2294 295.324 44.2664 295.107 44.2664H294.565V45.3645H294.152V42.6372H295.107ZM295.087 43.9274C295.282 43.9274 295.422 43.8844 295.506 43.8003C295.59 43.7153 295.633 43.6013 295.633 43.4553C295.633 43.3043 295.59 43.1873 295.506 43.1033C295.422 43.0183 295.282 42.9763 295.087 42.9763H294.565V43.9274H295.087Z" fill="#BBA591"/>
<path fill-rule="evenodd" clip-rule="evenodd" d="M297.717 42.6376L296.712 45.3648H297.148L297.382 44.6987H298.496L298.73 45.3648H299.167L298.169 42.6376H297.717ZM297.499 44.3707L297.939 43.1286L298.38 44.3707H297.499Z" fill="#BBA591"/>
<path d="M300.702 42.6369L302.07 44.691V42.6369H302.483V45.3651H302.07L300.702 43.3109V45.3651H300.289V42.6369H300.702Z" fill="#BBA591"/>
<path d="M304.677 43.9537L304.034 42.6376H303.567L304.471 44.3587V45.3648H304.884V44.3587L305.78 42.6376H305.317L304.677 43.9537Z" fill="#BBA591"/>
<path d="M309.226 42.9721H308.419V42.6371H310.441V42.9721H309.639V45.3653H309.226V42.9721Z" fill="#BBA591"/>
<path fill-rule="evenodd" clip-rule="evenodd" d="M312.101 42.6376L311.096 45.3648H311.532L311.766 44.6987H312.88L313.114 45.3648H313.551L312.553 42.6376H312.101ZM311.883 44.3707L312.323 43.1286L312.764 44.3707H311.883Z" fill="#BBA591"/>
<path d="M316.578 44.2037H315.838V43.8847H316.995V45.3648H316.617L316.582 44.9637C316.491 45.1057 316.377 45.2168 316.239 45.2948C316.102 45.3728 315.922 45.4118 315.701 45.4118C315.444 45.4118 315.22 45.3528 315.027 45.2358C314.835 45.1197 314.686 44.9557 314.579 44.7457C314.473 44.5347 314.42 44.2897 314.42 44.0087C314.42 43.7306 314.474 43.4846 314.583 43.2716C314.692 43.0586 314.848 42.8916 315.049 42.7706C315.25 42.6506 315.488 42.5905 315.764 42.5905C316.075 42.5905 316.335 42.6656 316.543 42.8156C316.751 42.9676 316.886 43.1746 316.948 43.4396H316.481C316.44 43.2946 316.358 43.1806 316.235 43.0976C316.113 43.0136 315.956 42.9726 315.764 42.9726C315.479 42.9726 315.254 43.0636 315.09 43.2486C314.926 43.4326 314.845 43.6876 314.845 44.0127C314.845 44.3377 314.925 44.5907 315.086 44.7717C315.247 44.9547 315.461 45.0457 315.729 45.0457C315.999 45.0457 316.202 44.9687 316.339 44.8147C316.475 44.6617 316.555 44.4587 316.578 44.2037Z" fill="#BBA591"/>
<path d="M318.652 42.6371H318.239V45.3654H319.891V45.0373H318.652V42.6371Z" fill="#BBA591"/>
<path fill-rule="evenodd" clip-rule="evenodd" d="M0 32.1486C0 15.4983 13.4971 2.00016 30.1474 2.00016C46.7978 2.00016 60.2949 15.4983 60.2949 32.1486C60.2949 48.7979 46.7978 62.296 30.1474 62.296C13.4971 62.296 0 48.7979 0 32.1486ZM31.9186 21.9078C31.9186 26.5852 35.7099 30.3775 40.3883 30.3775C45.0656 30.3775 48.858 26.5852 48.858 21.9078C48.858 17.2294 45.0656 13.4381 40.3883 13.4381C35.7099 13.4381 31.9186 17.2294 31.9186 21.9078Z" fill="#BBA591"/>
<path d="M72.7877 26.5447C71.6496 26.5447 70.6725 26.3007 69.8575 25.8117C69.0414 25.3237 68.4133 24.6416 67.9733 23.7665C67.5333 22.8925 67.3133 21.8804 67.3133 20.7313C67.3133 19.5832 67.5333 18.5681 67.9733 17.688C68.4133 16.808 69.0414 16.1209 69.8575 15.6269C70.6725 15.1338 71.6496 14.8868 72.7877 14.8868C74.1408 14.8868 75.2489 15.2218 76.112 15.8929C76.978 16.5639 77.5171 17.506 77.7321 18.7191H75.4619C75.3209 18.1071 75.0249 17.626 74.5668 17.278C74.1108 16.929 73.5068 16.754 72.7557 16.754C71.7146 16.754 70.8985 17.108 70.3085 17.817C69.7174 18.5251 69.4224 19.4972 69.4224 20.7313C69.4224 21.9664 69.7174 22.9355 70.3085 23.6385C70.8985 24.3416 71.7146 24.6926 72.7557 24.6926C73.5068 24.6926 74.1108 24.5296 74.5668 24.2016C75.0249 23.8745 75.3209 23.4205 75.4619 22.8404H77.7321C77.5171 24.0005 76.978 24.9076 76.112 25.5617C75.2489 26.2167 74.1408 26.5447 72.7877 26.5447Z" fill="#BBA591"/>
<path fill-rule="evenodd" clip-rule="evenodd" d="M83.336 26.5446C82.562 26.5446 81.8679 26.3676 81.2509 26.0136C80.6318 25.6586 80.1438 25.1675 79.7848 24.5395C79.4247 23.9114 79.2457 23.1844 79.2457 22.3573C79.2457 21.5312 79.4277 20.8042 79.7928 20.1761C80.1578 19.5481 80.6488 19.057 81.2659 18.703C81.8829 18.348 82.579 18.171 83.3511 18.171C84.1141 18.171 84.8032 18.348 85.4212 18.703C86.0383 19.057 86.5263 19.5481 86.8853 20.1761C87.2454 20.8042 87.4254 21.5312 87.4254 22.3573C87.4254 23.1844 87.2454 23.9114 86.8853 24.5395C86.5263 25.1675 86.0353 25.6586 85.4132 26.0136C84.7902 26.3676 84.0971 26.5446 83.336 26.5446ZM83.3511 19.9581C82.804 19.9581 82.335 20.1601 81.9429 20.5622C81.5499 20.9652 81.3549 21.5632 81.3549 22.3573C81.3549 23.1524 81.5499 23.7504 81.9429 24.1535C82.335 24.5555 82.798 24.7565 83.336 24.7565C83.8721 24.7565 84.3391 24.5555 84.7362 24.1535C85.1332 23.7504 85.3322 23.1524 85.3322 22.3573C85.3322 21.5632 85.1332 20.9652 84.7362 20.5622C84.3391 20.1601 83.8781 19.9581 83.3511 19.9581Z" fill="#BBA591"/>
<path d="M99.1474 18.1714C98.5674 18.1714 98.0343 18.2994 97.5453 18.5574C97.0563 18.8154 96.6682 19.1645 96.3772 19.6045C95.8632 18.6494 94.9881 18.1714 93.753 18.1714C93.1949 18.1714 92.7039 18.2864 92.2799 18.5174C91.8558 18.7484 91.5148 19.0564 91.2568 19.4435L91.0808 18.3644H89.2606V26.351H91.3218V22.2287C91.3218 21.4996 91.4908 20.9306 91.8288 20.5226C92.1679 20.1145 92.6099 19.9105 93.1579 19.9105C93.715 19.9105 94.128 20.0925 94.397 20.4576C94.6661 20.8226 94.7991 21.3486 94.7991 22.0357V26.351H96.8612V22.2287C96.8612 21.4996 97.0303 20.9306 97.3683 20.5226C97.7063 20.1145 98.1543 19.9105 98.7124 19.9105C99.2594 19.9105 99.6655 20.0925 99.9285 20.4576C100.192 20.8226 100.324 21.3486 100.324 22.0357V26.351H102.384V21.8427C102.384 20.6406 102.105 19.7275 101.547 19.1054C100.989 18.4834 100.189 18.1714 99.1474 18.1714Z" fill="#BBA591"/>
<path fill-rule="evenodd" clip-rule="evenodd" d="M111.095 18.7186C111.685 19.0836 112.152 19.5827 112.497 20.2157C112.84 20.8498 113.012 21.5688 113.012 22.3739C113.012 23.179 112.84 23.895 112.497 24.5231C112.152 25.1511 111.685 25.6452 111.095 26.0052C110.504 26.3642 109.834 26.5442 109.083 26.5442C108.481 26.5442 107.956 26.4322 107.504 26.2062C107.054 25.9812 106.689 25.6642 106.41 25.2561V29.8935H104.349V18.3646H106.184L106.41 19.5077C106.668 19.1537 107.008 18.8426 107.432 18.5736C107.856 18.3056 108.407 18.1716 109.083 18.1716C109.834 18.1716 110.504 18.3536 111.095 18.7186ZM108.648 24.7411C109.302 24.7411 109.844 24.5211 110.274 24.081C110.704 23.641 110.919 23.072 110.919 22.3739C110.919 21.6759 110.704 21.1018 110.274 20.6508C109.844 20.2007 109.302 19.9747 108.648 19.9747C107.982 19.9747 107.437 20.1977 107.013 20.6428C106.589 21.0888 106.378 21.6599 106.378 22.3579C106.378 23.056 106.589 23.627 107.013 24.073C107.437 24.5181 107.982 24.7411 108.648 24.7411Z" fill="#BBA591"/>
<path fill-rule="evenodd" clip-rule="evenodd" d="M118.085 21.6333C116.925 21.6333 116.055 21.8643 115.476 22.3253C114.896 22.7873 114.606 23.3884 114.606 24.1285C114.606 24.5695 114.714 24.9715 114.928 25.3366C115.143 25.7016 115.47 25.9946 115.911 26.2146C116.35 26.4346 116.915 26.5446 117.601 26.5446C118.266 26.5446 118.811 26.4046 119.236 26.1256C119.66 25.8466 119.99 25.4926 120.226 25.0625L120.419 26.3516H122.174V21.4402C122.174 20.3992 121.846 19.5941 121.192 19.024C120.537 18.456 119.64 18.171 118.503 18.171C117.838 18.171 117.236 18.287 116.7 18.518C116.163 18.749 115.725 19.079 115.387 19.5081C115.049 19.9371 114.853 20.4412 114.799 21.0212H116.812C116.887 20.6352 117.081 20.3421 117.392 20.1441C117.703 19.9451 118.068 19.8461 118.487 19.8461C118.948 19.8461 119.335 19.9751 119.646 20.2321C119.958 20.4902 120.113 20.8922 120.113 21.4402V21.6333H118.085ZM119.445 24.3545C119.117 24.7405 118.659 24.9345 118.068 24.9345C117.681 24.9345 117.371 24.8485 117.134 24.6765C116.898 24.5045 116.78 24.2635 116.78 23.9524C116.78 23.6624 116.898 23.4174 117.134 23.2194C117.371 23.0214 117.762 22.9214 118.31 22.9214H120.065C119.979 23.4904 119.772 23.9684 119.445 24.3545Z" fill="#BBA591"/>
<path d="M131.965 21.8429V26.3512H129.902V22.0359C129.902 21.3488 129.763 20.8228 129.485 20.4578C129.205 20.0927 128.77 19.9107 128.18 19.9107C127.601 19.9107 127.125 20.1147 126.755 20.5218C126.385 20.9308 126.199 21.4988 126.199 22.2289V26.3512H124.139V18.3646H125.958L126.119 19.7167C126.365 19.2447 126.723 18.8696 127.19 18.5896C127.656 18.3106 128.206 18.1716 128.84 18.1716C129.827 18.1716 130.595 18.4826 131.144 19.1046C131.691 19.7277 131.965 20.6408 131.965 21.8429Z" fill="#BBA591"/>
<path d="M136.505 25.82L134.653 29.8943H136.843L141.915 18.3644H139.725L137.391 23.9848L135.152 18.3644H132.914L136.022 25.82H136.505Z" fill="#BBA591"/>
<path d="M67.0232 34.4022H75.6709V36.0603H72.3687V45.6741H70.3085V36.0603H67.0232V34.4022Z" fill="#BBA591"/>
<path fill-rule="evenodd" clip-rule="evenodd" d="M81.677 38.0098C81.076 37.6658 80.3829 37.4947 79.5998 37.4947C78.7618 37.4947 78.0357 37.6738 77.4187 38.0338C76.7996 38.3928 76.3176 38.8948 75.9686 39.5389C75.6195 40.184 75.4455 40.918 75.4455 41.7451C75.4455 42.5611 75.6225 43.2802 75.9765 43.9033C76.3316 44.5263 76.8196 45.0083 77.4417 45.3524C78.0647 45.6964 78.7788 45.8684 79.5838 45.8684C80.2279 45.8684 80.8039 45.7484 81.315 45.5124C81.825 45.2764 82.2531 44.9523 82.6031 44.5393C82.9521 44.1253 83.2011 43.6662 83.3511 43.1622H81.258C81.119 43.4632 80.9069 43.7072 80.6229 43.8953C80.3369 44.0823 79.9859 44.1763 79.5678 44.1763C79.0088 44.1763 78.5348 43.9983 78.1427 43.6452C77.7507 43.2912 77.5337 42.8032 77.4907 42.1801H83.5612C83.5712 42.0391 83.5802 41.9071 83.5852 41.7781C83.5902 41.6491 83.5932 41.5261 83.5932 41.4071C83.5932 40.676 83.4232 40.0139 83.0851 39.4179C82.7481 38.8228 82.2781 38.3538 81.677 38.0098ZM77.5227 40.891C77.6297 40.313 77.8767 39.8789 78.2627 39.5959C78.6498 39.3109 79.0948 39.1679 79.5998 39.1679C80.1259 39.1679 80.5659 39.3249 80.92 39.6349C81.274 39.9479 81.467 40.366 81.5 40.891H77.5227Z" fill="#BBA591"/>
<path d="M88.2624 40.5219L90.2756 37.6877H92.4978L89.5836 41.68L92.4978 45.6743H90.2756L88.2624 42.8401L86.2343 45.6743H84.0281L86.9263 41.68L84.0281 37.6877H86.2343L88.2624 40.5219Z" fill="#BBA591"/>
<path d="M96.6677 35.5449H94.8486L94.6066 37.6881H93.2374V39.4102H94.6066V42.8895C94.6066 43.9306 94.8586 44.6546 95.3626 45.0616C95.8677 45.4697 96.5387 45.6747 97.3758 45.6747H98.7769V43.9186H97.7788C97.3708 43.9186 97.0838 43.8465 96.9177 43.7015C96.7507 43.5575 96.6677 43.2915 96.6677 42.9045V39.4102H98.8249V37.6881H96.6677V35.5449Z" fill="#BBA591"/>
<path d="M104.476 34.4022H106.539V44.063H111.53V45.6741H104.476V34.4022Z" fill="#BBA591"/>
<path fill-rule="evenodd" clip-rule="evenodd" d="M118.865 38.0258C118.247 37.6717 117.558 37.4947 116.795 37.4947C116.023 37.4947 115.327 37.6717 114.71 38.0258C114.093 38.3788 113.602 38.8708 113.237 39.4979C112.872 40.1269 112.69 40.854 112.69 41.6801C112.69 42.5081 112.869 43.2352 113.229 43.8623C113.588 44.4913 114.076 44.9813 114.695 45.3364C115.312 45.6904 116.006 45.8684 116.78 45.8684C117.541 45.8684 118.234 45.6904 118.857 45.3364C119.479 44.9813 119.97 44.4913 120.329 43.8623C120.689 43.2352 120.869 42.5081 120.869 41.6801C120.869 40.854 120.689 40.1269 120.329 39.4979C119.97 38.8708 119.482 38.3788 118.865 38.0258ZM118.18 43.4752C117.783 43.8793 117.316 44.0803 116.78 44.0803C116.243 44.0803 115.779 43.8793 115.387 43.4752C114.994 43.0732 114.799 42.4751 114.799 41.6801C114.799 40.887 114.994 40.287 115.387 39.8849C115.779 39.4829 116.248 39.2819 116.795 39.2819C117.322 39.2819 117.783 39.4829 118.18 39.8849C118.577 40.287 118.776 40.887 118.776 41.6801C118.776 42.4751 118.577 43.0732 118.18 43.4752Z" fill="#BBA591"/>
<path fill-rule="evenodd" clip-rule="evenodd" d="M123.832 37.8812C124.315 37.6231 124.9 37.4941 125.587 37.4941C126.038 37.4941 126.456 37.5591 126.843 37.6872H129.871V38.9433L128.501 39.0393C128.716 39.4473 128.823 39.8983 128.823 40.3934C128.823 40.9304 128.694 41.4185 128.437 41.8575C128.18 42.2975 127.807 42.6466 127.317 42.9046C126.829 43.1626 126.252 43.2916 125.587 43.2916C125.2 43.2916 124.841 43.2486 124.508 43.1626L123.912 43.7586C124.095 43.8547 124.342 43.9347 124.653 43.9987C124.964 44.0637 125.469 44.1277 126.167 44.1917C127.23 44.2897 128.002 44.5417 128.485 44.9497C128.968 45.3578 129.21 45.9208 129.21 46.6399C129.21 47.1119 129.081 47.562 128.823 47.985C128.565 48.409 128.168 48.753 127.632 49.0151C127.095 49.2781 126.408 49.4091 125.571 49.4091C124.433 49.4091 123.516 49.1981 122.817 48.774C122.12 48.351 121.772 47.714 121.772 46.8659C121.772 46.1468 122.12 45.5238 122.817 44.9987C122.603 44.9007 122.418 44.7997 122.262 44.6917C122.106 44.5847 121.97 44.4717 121.852 44.3547V43.9827L123.252 42.5025C122.63 41.9535 122.318 41.2524 122.318 40.3934C122.318 39.8553 122.45 39.3673 122.713 38.9283C122.976 38.4862 123.349 38.1392 123.832 37.8812ZM125.587 41.7135C126.006 41.7135 126.352 41.6005 126.626 41.3755C126.899 41.1484 127.036 40.8264 127.036 40.4084C127.036 39.9903 126.899 39.6683 126.626 39.4413C126.352 39.2173 126.006 39.1043 125.587 39.1043C125.147 39.1043 124.793 39.2173 124.524 39.4413C124.256 39.6683 124.122 39.9903 124.122 40.4084C124.122 40.8264 124.256 41.1484 124.524 41.3755C124.793 41.6005 125.147 41.7135 125.587 41.7135ZM125.748 45.6098C125.308 45.5768 124.9 45.5298 124.524 45.4658C124.213 45.6378 123.99 45.8248 123.856 46.0278C123.722 46.2308 123.655 46.4419 123.655 46.6569C123.655 47.0539 123.84 47.3509 124.21 47.55C124.581 47.749 125.034 47.849 125.571 47.849C126.086 47.849 126.505 47.743 126.827 47.534C127.148 47.3249 127.31 47.0419 127.31 46.6879C127.31 46.3989 127.205 46.1568 126.996 45.9638C126.786 45.7708 126.37 45.6528 125.748 45.6098Z" fill="#BBA591"/>
<path fill-rule="evenodd" clip-rule="evenodd" d="M136.964 38.0258C136.346 37.6717 135.657 37.4947 134.894 37.4947C134.122 37.4947 133.426 37.6717 132.809 38.0258C132.192 38.3788 131.701 38.8708 131.336 39.4979C130.971 40.1269 130.789 40.854 130.789 41.6801C130.789 42.5081 130.968 43.2352 131.328 43.8623C131.687 44.4913 132.175 44.9813 132.794 45.3364C133.411 45.6904 134.105 45.8684 134.879 45.8684C135.64 45.8684 136.333 45.6904 136.956 45.3364C137.578 44.9813 138.069 44.4913 138.429 43.8623C138.789 43.2352 138.969 42.5081 138.969 41.6801C138.969 40.854 138.789 40.1269 138.429 39.4979C138.069 38.8708 137.581 38.3788 136.964 38.0258ZM136.279 43.4752C135.882 43.8793 135.415 44.0803 134.879 44.0803C134.342 44.0803 133.878 43.8793 133.486 43.4752C133.093 43.0732 132.898 42.4751 132.898 41.6801C132.898 40.887 133.093 40.287 133.486 39.8849C133.878 39.4829 134.347 39.2819 134.894 39.2819C135.421 39.2819 135.882 39.4829 136.279 39.8849C136.676 40.287 136.875 40.887 136.875 41.6801C136.875 42.4751 136.676 43.0732 136.279 43.4752Z" fill="#BBA591"/>
</svg>
