<svg width="240" height="48" viewBox="0 0 240 48" fill="none" xmlns="http://www.w3.org/2000/svg">
<ellipse cx="193.731" cy="24" rx="23.1345" ry="24" fill="#BBA591"/>
<ellipse cx="216.865" cy="24" rx="23.1345" ry="24" fill="#E3E4DF"/>
<path d="M12.6878 44.2028C8.85329 44.2028 5.77061 43.0913 3.43981 40.8683C1.1466 38.6063 0 35.4083 0 31.2743H7.21797C7.25556 33.1853 7.68788 34.7063 8.51494 35.8373C9.342 36.9683 10.6766 37.5338 12.5187 37.5338C14.248 37.5338 15.5073 37.0073 16.2968 35.9543C17.0863 34.8623 17.481 33.4388 17.481 31.6838V2.55078H24.699V31.6838C24.699 35.7008 23.6088 38.8013 21.4283 40.9853C19.2855 43.1303 16.372 44.2028 12.6878 44.2028Z" fill="#997D64"/>
<path d="M47.8882 44.2028C44.9935 44.2028 42.3807 43.6178 40.0499 42.4478C37.7191 41.2388 35.8582 39.4253 34.4673 37.0073C33.1139 34.5893 32.4372 31.5278 32.4372 27.8228V2.55078H39.6552V27.8813C39.6552 31.0793 40.3883 33.4583 41.8544 35.0183C43.3582 36.5783 45.4258 37.3583 48.0574 37.3583C50.6513 37.3583 52.7002 36.5783 54.2039 35.0183C55.7076 33.4583 56.4595 31.0793 56.4595 27.8813V2.55078H63.6775V27.8228C63.6775 31.5278 62.9632 34.5893 61.5347 37.0073C60.1061 39.4253 58.1888 41.2388 55.7828 42.4478C53.4144 43.6178 50.7829 44.2028 47.8882 44.2028Z" fill="#997D64"/>
<path d="M71.3276 43.5008V2.55078H78.5456V37.6508H96.0266V43.5008H71.3276Z" fill="#997D64"/>
<path d="M102.668 43.5008V2.55078H109.886V43.5008H102.668Z" fill="#997D64"/>
<path d="M117.819 43.5008V2.55078H143.589V8.57628H125.037V19.8083H141.898V25.6583H125.037V37.4753H143.589V43.5008H117.819Z" fill="#997D64"/>
</svg>
