<svg width="240" height="48" viewBox="0 0 240 48" fill="none" xmlns="http://www.w3.org/2000/svg">
<ellipse cx="193.731" cy="24" rx="23.1345" ry="24" fill="#BBA591"/>
<ellipse cx="216.866" cy="24" rx="23.1345" ry="24" fill="#E3E4DF"/>
<path d="M12.6878 44.2018C8.85329 44.2018 5.77061 43.0903 3.43981 40.8673C1.1466 38.6053 0 35.4073 0 31.2733H7.21797C7.25556 33.1843 7.68788 34.7053 8.51494 35.8363C9.342 36.9673 10.6766 37.5328 12.5187 37.5328C14.248 37.5328 15.5073 37.0063 16.2968 35.9533C17.0863 34.8613 17.481 33.4378 17.481 31.6828V2.5498H24.699V31.6828C24.699 35.6998 23.6088 38.8003 21.4283 40.9843C19.2855 43.1293 16.372 44.2018 12.6878 44.2018Z" fill="#997D64"/>
<path d="M47.8882 44.2018C44.9935 44.2018 42.3807 43.6168 40.0499 42.4468C37.7191 41.2378 35.8582 39.4243 34.4673 37.0063C33.1139 34.5883 32.4372 31.5268 32.4372 27.8218V2.5498H39.6552V27.8803C39.6552 31.0783 40.3883 33.4573 41.8544 35.0173C43.3582 36.5773 45.4258 37.3573 48.0574 37.3573C50.6513 37.3573 52.7002 36.5773 54.2039 35.0173C55.7076 33.4573 56.4595 31.0783 56.4595 27.8803V2.5498H63.6775V27.8218C63.6775 31.5268 62.9632 34.5883 61.5347 37.0063C60.1061 39.4243 58.1888 41.2378 55.7828 42.4468C53.4144 43.6168 50.7829 44.2018 47.8882 44.2018Z" fill="#997D64"/>
<path d="M71.3276 43.4998V2.5498H78.5456V37.6498H96.0266V43.4998H71.3276Z" fill="#997D64"/>
<path d="M102.668 43.4998V2.5498H109.886V43.4998H102.668Z" fill="#997D64"/>
<path d="M117.819 43.4998V2.5498H143.589V8.57531H125.037V19.8073H141.898V25.6573H125.037V37.4743H143.589V43.4998H117.819Z" fill="#997D64"/>
</svg>
